<?xml version="1.0" encoding="UTF-8" standalone="no"?>
<!DOCTYPE svg PUBLIC "-//W3C//DTD SVG 1.1//EN"
 "http://www.w3.org/Graphics/SVG/1.1/DTD/svg11.dtd">
<!-- Generated by graphviz version 14.1.4 (20260321.0153)
 -->
<!-- Pages: 1 -->
<svg width="351pt" height="44pt"
 viewBox="0.00 0.00 351.00 44.00" xmlns="http://www.w3.org/2000/svg" xmlns:xlink="http://www.w3.org/1999/xlink">
<g id="graph0" class="graph" transform="scale(1 1) rotate(0) translate(4 40)">
<!-- a -->
<g id="node1" class="node">
<title>a</title>
<polygon fill="#68228b" stroke="black" points="54,-36 0,-36 0,0 54,0 54,-36"/>
<text xml:space="preserve" text-anchor="middle" x="27" y="-14.12" font-family="Helvetica,sans-Serif" font-size="10.00" fill="white">login</text>
</g>
<!-- b -->
<g id="node2" class="node">
<title>b</title>
<polygon fill="#68228b" stroke="black" points="151,-36 90,-36 90,0 151,0 151,-36"/>
<text xml:space="preserve" text-anchor="middle" x="120.5" y="-14.12" font-family="Helvetica,sans-Serif" font-size="10.00" fill="white">dashboard</text>
</g>
<!-- a&#45;&gt;b -->
<g id="edge1" class="edge">
<title>a&#45;&gt;b</title>
<path fill="none" stroke="white" d="M54.47,-18C62.01,-18 70.42,-18 78.61,-18"/>
<polygon fill="white" stroke="white" points="88.34,-18 78.34,-22.5 84.56,-18 78.34,-18 78.34,-18 78.34,-18 84.56,-18 78.34,-13.5 88.34,-18"/>
</g>
<!-- c -->
<g id="node3" class="node">
<title>c</title>
<polygon fill="#68228b" stroke="black" points="244.25,-36 187,-36 187,0 244.25,0 244.25,-36"/>
<text xml:space="preserve" text-anchor="middle" x="215.62" y="-14.12" font-family="Helvetica,sans-Serif" font-size="10.00" fill="white">view files</text>
</g>
<!-- b&#45;&gt;c -->
<g id="edge2" class="edge">
<title>b&#45;&gt;c</title>
<path fill="none" stroke="white" d="M151.48,-18C159.14,-18 167.49,-18 175.54,-18"/>
<polygon fill="white" stroke="white" points="185.38,-18 175.38,-22.5 181.6,-18 175.38,-18 175.38,-18 175.38,-18 181.6,-18 175.38,-13.5 185.38,-18"/>
</g>
<!-- d -->
<g id="node4" class="node">
<title>d</title>
<polygon fill="#68228b" stroke="black" points="342.75,-36 280.25,-36 280.25,0 342.75,0 342.75,-36"/>
<text xml:space="preserve" text-anchor="middle" x="311.5" y="-14.12" font-family="Helvetica,sans-Serif" font-size="10.00" fill="white">file display</text>
</g>
<!-- c&#45;&gt;d -->
<g id="edge3" class="edge">
<title>c&#45;&gt;d</title>
<path fill="none" stroke="white" d="M244.54,-18C252.19,-18 260.66,-18 268.9,-18"/>
<polygon fill="white" stroke="white" points="278.69,-18 268.69,-22.5 274.91,-18 268.69,-18 268.69,-18 268.69,-18 274.91,-18 268.69,-13.5 278.69,-18"/>
</g>
</g>
</svg>
