<?xml version="1.0" encoding="UTF-8" standalone="no"?>
<!DOCTYPE svg PUBLIC "-//W3C//DTD SVG 1.1//EN"
 "http://www.w3.org/Graphics/SVG/1.1/DTD/svg11.dtd">
<!-- Generated by graphviz version 14.1.4 (20260321.0153)
 -->
<!-- Pages: 1 -->
<svg width="644pt" height="44pt"
 viewBox="0.00 0.00 644.00 44.00" xmlns="http://www.w3.org/2000/svg" xmlns:xlink="http://www.w3.org/1999/xlink">
<g id="graph0" class="graph" transform="scale(1 1) rotate(0) translate(4 40)">
<!-- a -->
<g id="node1" class="node">
<title>a</title>
<polygon fill="#68228b" stroke="black" points="73.75,-36 0,-36 0,0 73.75,0 73.75,-36"/>
<text xml:space="preserve" text-anchor="middle" x="36.88" y="-14.12" font-family="Helvetica,sans-Serif" font-size="10.00" fill="white">initial request</text>
</g>
<!-- b -->
<g id="node2" class="node">
<title>b</title>
<polygon fill="#68228b" stroke="black" points="184.25,-36 109.75,-36 109.75,0 184.25,0 184.25,-36"/>
<text xml:space="preserve" text-anchor="middle" x="147" y="-14.12" font-family="Helvetica,sans-Serif" font-size="10.00" fill="white">django server</text>
</g>
<!-- a&#45;&gt;b -->
<g id="edge1" class="edge">
<title>a&#45;&gt;b</title>
<path fill="none" stroke="white" d="M74.18,-18C82.03,-18 90.43,-18 98.63,-18"/>
<polygon fill="white" stroke="white" points="108.39,-18 98.39,-22.5 104.61,-18 98.39,-18 98.39,-18 98.39,-18 104.61,-18 98.39,-13.5 108.39,-18"/>
</g>
<!-- f -->
<g id="node3" class="node">
<title>f</title>
<polygon fill="#68228b" stroke="black" points="289.5,-36 220.25,-36 220.25,0 289.5,0 289.5,-36"/>
<text xml:space="preserve" text-anchor="middle" x="254.88" y="-14.12" font-family="Helvetica,sans-Serif" font-size="10.00" fill="white">sitemap.xml</text>
</g>
<!-- b&#45;&gt;f -->
<g id="edge2" class="edge">
<title>b&#45;&gt;f</title>
<path fill="none" stroke="white" d="M184.73,-18C192.53,-18 200.84,-18 208.9,-18"/>
<polygon fill="white" stroke="white" points="218.83,-18 208.83,-22.5 215.05,-18 208.83,-18 208.83,-18 208.83,-18 215.05,-18 208.83,-13.5 218.83,-18"/>
</g>
<!-- g -->
<g id="node4" class="node">
<title>g</title>
<polygon fill="#68228b" stroke="black" points="403,-36 325.5,-36 325.5,0 403,0 403,-36"/>
<text xml:space="preserve" text-anchor="middle" x="364.25" y="-14.12" font-family="Helvetica,sans-Serif" font-size="10.00" fill="white">filedata JSON</text>
</g>
<!-- f&#45;&gt;g -->
<g id="edge3" class="edge">
<title>f&#45;&gt;g</title>
<path fill="none" stroke="white" d="M289.85,-18C297.54,-18 305.85,-18 314.03,-18"/>
<polygon fill="white" stroke="white" points="323.8,-18 313.8,-22.5 320.02,-18 313.8,-18 313.8,-18 313.8,-18 320.02,-18 313.8,-13.5 323.8,-18"/>
</g>
<!-- h -->
<g id="node5" class="node">
<title>h</title>
<polygon fill="#68228b" stroke="black" points="527.75,-36 439,-36 439,0 527.75,0 527.75,-36"/>
<text xml:space="preserve" text-anchor="middle" x="483.38" y="-14.12" font-family="Helvetica,sans-Serif" font-size="10.00" fill="white">wikiarticle model</text>
</g>
<!-- g&#45;&gt;h -->
<g id="edge4" class="edge">
<title>g&#45;&gt;h</title>
<path fill="none" stroke="white" d="M403.28,-18C411.08,-18 419.45,-18 427.71,-18"/>
<polygon fill="white" stroke="white" points="437.63,-18 427.63,-22.5 433.85,-18 427.63,-18 427.63,-18 427.63,-18 433.85,-18 427.63,-13.5 437.63,-18"/>
</g>
<!-- i -->
<g id="node6" class="node">
<title>i</title>
<polygon fill="#68228b" stroke="black" points="636,-36 563.75,-36 563.75,0 636,0 636,-36"/>
<text xml:space="preserve" text-anchor="middle" x="599.88" y="-14.12" font-family="Helvetica,sans-Serif" font-size="10.00" fill="white">page redirect</text>
</g>
<!-- h&#45;&gt;i -->
<g id="edge5" class="edge">
<title>h&#45;&gt;i</title>
<path fill="none" stroke="white" d="M527.99,-18C535.98,-18 544.34,-18 552.41,-18"/>
<polygon fill="white" stroke="white" points="562.34,-18 552.34,-22.5 558.55,-18 552.34,-18 552.34,-18 552.34,-18 558.55,-18 552.34,-13.5 562.34,-18"/>
</g>
</g>
</svg>
