<?xml version="1.0" encoding="UTF-8" standalone="no"?>
<!DOCTYPE svg PUBLIC "-//W3C//DTD SVG 1.1//EN"
 "http://www.w3.org/Graphics/SVG/1.1/DTD/svg11.dtd">
<!-- Generated by graphviz version 14.1.4 (20260321.0153)
 -->
<!-- Pages: 1 -->
<svg width="306pt" height="44pt"
 viewBox="0.00 0.00 306.00 44.00" xmlns="http://www.w3.org/2000/svg" xmlns:xlink="http://www.w3.org/1999/xlink">
<g id="graph0" class="graph" transform="scale(1 1) rotate(0) translate(4 40)">
<!-- a -->
<g id="node1" class="node">
<title>a</title>
<polygon fill="#68228b" stroke="black" points="73.75,-36 0,-36 0,0 73.75,0 73.75,-36"/>
<text xml:space="preserve" text-anchor="middle" x="36.88" y="-14.12" font-family="Helvetica,sans-Serif" font-size="10.00" fill="white">initial request</text>
</g>
<!-- b -->
<g id="node2" class="node">
<title>b</title>
<polygon fill="#68228b" stroke="black" points="184.25,-36 109.75,-36 109.75,0 184.25,0 184.25,-36"/>
<text xml:space="preserve" text-anchor="middle" x="147" y="-14.12" font-family="Helvetica,sans-Serif" font-size="10.00" fill="white">django server</text>
</g>
<!-- a&#45;&gt;b -->
<g id="edge1" class="edge">
<title>a&#45;&gt;b</title>
<path fill="none" stroke="white" d="M74.18,-18C82.03,-18 90.43,-18 98.63,-18"/>
<polygon fill="white" stroke="white" points="108.39,-18 98.39,-22.5 104.61,-18 98.39,-18 98.39,-18 98.39,-18 104.61,-18 98.39,-13.5 108.39,-18"/>
</g>
<!-- f -->
<g id="node3" class="node">
<title>f</title>
<polygon fill="#68228b" stroke="black" points="297.75,-36 220.25,-36 220.25,0 297.75,0 297.75,-36"/>
<text xml:space="preserve" text-anchor="middle" x="259" y="-14.12" font-family="Helvetica,sans-Serif" font-size="10.00" fill="white">filedata JSON</text>
</g>
<!-- b&#45;&gt;f -->
<g id="edge2" class="edge">
<title>b&#45;&gt;f</title>
<path fill="none" stroke="white" d="M184.63,-18C192.45,-18 200.83,-18 209.03,-18"/>
<polygon fill="white" stroke="white" points="218.81,-18 208.81,-22.5 215.03,-18 208.81,-18 208.81,-18 208.81,-18 215.03,-18 208.81,-13.5 218.81,-18"/>
</g>
</g>
</svg>
